<svg width="16" height="16" viewBox="0 0 16 16" fill="none" xmlns="http://www.w3.org/2000/svg">
<path fill-rule="evenodd" clip-rule="evenodd" d="M13.9007 12.2C13.9653 11.9779 14 11.743 14 11.5C14 11.3288 13.9828 11.1616 13.95 11H15.4C15.7314 11 16 11.2686 16 11.6C16 11.9314 15.7314 12.2 15.4 12.2H13.9007ZM9.09932 12.2H0.6C0.268629 12.2 0 11.9314 0 11.6C0 11.2686 0.268629 11 0.6 11H9.05001C9.01721 11.1616 9 11.3288 9 11.5C9 11.743 9.03467 11.9779 9.09932 12.2Z" fill="#4353FF"/>
<path fill-rule="evenodd" clip-rule="evenodd" d="M11.5 12.8C12.218 12.8 12.8 12.218 12.8 11.5C12.8 10.782 12.218 10.2 11.5 10.2C10.782 10.2 10.2 10.782 10.2 11.5C10.2 12.218 10.782 12.8 11.5 12.8ZM11.5 14C12.8807 14 14 12.8807 14 11.5C14 10.1193 12.8807 9 11.5 9C10.1193 9 9 10.1193 9 11.5C9 12.8807 10.1193 14 11.5 14Z" fill="#4353FF"/>
<path fill-rule="evenodd" clip-rule="evenodd" d="M7.90068 5.2C7.96533 4.97788 8 4.74299 8 4.5C8 4.32877 7.98278 4.16155 7.94999 4H15.4C15.7314 4 16 4.26863 16 4.6C16 4.93137 15.7314 5.2 15.4 5.2H7.90068ZM3.09932 5.2H0.6C0.268629 5.2 0 4.93137 0 4.6C0 4.26863 0.268629 4 0.6 4H3.05001C3.01722 4.16155 3 4.32877 3 4.5C3 4.74299 3.03467 4.97788 3.09932 5.2Z" fill="#4353FF"/>
<path fill-rule="evenodd" clip-rule="evenodd" d="M5.5 5.8C6.21797 5.8 6.8 5.21797 6.8 4.5C6.8 3.78203 6.21797 3.2 5.5 3.2C4.78203 3.2 4.2 3.78203 4.2 4.5C4.2 5.21797 4.78203 5.8 5.5 5.8ZM5.5 7C6.88071 7 8 5.88071 8 4.5C8 3.11929 6.88071 2 5.5 2C4.11929 2 3 3.11929 3 4.5C3 5.88071 4.11929 7 5.5 7Z" fill="#4353FF"/>
</svg>
